<?xml version="1.0" encoding="utf-8"?>
<!-- Generator: Adobe Illustrator 27.1.1, SVG Export Plug-In . SVG Version: 6.00 Build 0)  -->
<svg version="1.1" id="meteor-icon-kit__regular-whatsapp"
	 xmlns="http://www.w3.org/2000/svg" xmlns:xlink="http://www.w3.org/1999/xlink" x="0px" y="0px" viewBox="0 0 800 800"
	 style="enable-background:new 0 0 800 800;" xml:space="preserve">
<style type="text/css">
	.st0{fill-rule:evenodd;clip-rule:evenodd;fill:url(#SVGID_1_);}
</style>
<g id="SVGRepo_bgCarrier">
</g>
<g id="SVGRepo_tracerCarrier">
</g>
<g id="SVGRepo_iconCarrier">
	<linearGradient id="SVGID_1_" gradientUnits="userSpaceOnUse" x1="401.8008" y1="798" x2="401.8008" y2="-1.8016">
		<stop  offset="3.565273e-03" style="stop-color:#ED1C24"/>
		<stop  offset="0.1039" style="stop-color:#DD1C24"/>
		<stop  offset="0.3656" style="stop-color:#B91C24"/>
		<stop  offset="0.6104" style="stop-color:#9E1C24"/>
		<stop  offset="0.829" style="stop-color:#8F1C24"/>
		<stop  offset="1" style="stop-color:#891C24"/>
	</linearGradient>
	<path class="st0" d="M683.8,116.2C609.6,41.6,508.7-0.3,403.4,0C185,0,7.2,177.8,7.1,396.3C7,465.8,25.3,534.2,60,594.4L3.8,799.8
		l210.1-55.1c58.1,31.7,123.2,48.2,189.4,48.2h0.2c218.4,0,396.2-177.8,396.3-396.3C800.1,291.4,758.3,190.4,683.8,116.2z
		 M403.4,725.9h-0.1c-59,0-116.9-15.8-167.7-45.9l-12-7.1L98.9,705.6L132.2,584l-7.8-12.5C91.4,519,74,458.3,74.1,396.3
		c0-181.6,147.8-329.4,329.5-329.4c87.4,0.1,171.1,34.8,232.9,96.6c61.7,61.8,96.4,145.6,96.4,233
		C732.8,578.2,585,725.9,403.4,725.9z M584.1,479.2c-9.9-5-58.6-28.9-67.7-32.3c-9.1-3.4-15.7-5-22.3,5
		c-6.6,9.9-25.6,32.2-31.4,38.8c-5.8,6.6-11.6,7.4-21.5,2.5c-9.9-5-41.8-15.4-79.6-49.1c-29.4-26.3-49.4-58.7-55.1-68.6
		s-0.6-15.2,4.4-20.2c4.4-4.4,9.9-11.6,14.8-17.3c4.9-5.8,6.6-9.9,9.9-16.5s1.7-12.4-0.8-17.3c-2.5-5-22.3-53.7-30.5-73.5
		c-8-19.3-16.2-16.7-22.3-17.1c-5.7-0.3-12.4-0.3-19-0.3c-10.1,0.3-19.7,4.8-26.4,12.4c-9.1,9.9-34.6,33.9-34.6,82.6
		s35.5,95.8,40.4,102.4S312.3,517.1,411.6,560c18.4,8,37.3,14.9,56.5,20.9c23.7,7.6,45.3,6.5,62.4,3.9c19-2.9,58.6-24,66.8-47.1
		c8.3-23.1,8.3-43,5.7-47.1S594,484.2,584.1,479.2L584.1,479.2z"/>
</g>
</svg>
